# xmcd
#
# Track frame offsets:
#	150
#	15320
#	31243
#	47513
#	62201
#	78935
#	93006
#	118359
#	137254
#	153560
#	171712
#	190615
#	206216
#	226918
#	245313
#	260825
#
# Disc length: 3677 seconds
#
# Revision: 1
# Processed by: cddbd v1.5.2PL0 Copyright (c) Steve Scherf et al.
# Submitted via: audiograbber 1.83.01
#
DISCID=d10e5b10
DTITLE=Keith, Toby - CB5060-03
DYEAR=1900
DGENRE=Karaoke
TTITLE0=The Angry American
TTITLE1=My List
TTITLE2=Beer For My Horses
TTITLE3=If A Man Answers
TTITLE4=How do You Like Me Now
TTITLE5=Good To Go to Mexico
TTITLE6=Time For Me To ride
TTITLE7=The Critic
TTITLE8=Me Too
TTITLE9=Don't Leave, I Think I Love You
TTITLE10=Taliban Song
TTITLE11=It's All Good
TTITLE12=Daddest Boots
TTITLE13=Who's Your Daddy
TTITLE14=Losing My Touch
TTITLE15=Blame It On The Mistletoe
EXTD=
EXTT0=
EXTT1=
EXTT2=
EXTT3=
EXTT4=
EXTT5=
EXTT6=
EXTT7=
EXTT8=
EXTT9=
EXTT10=
EXTT11=
EXTT12=
EXTT13=
EXTT14=
EXTT15=
PLAYORDER=
